<svg width="20" height="20" viewBox="0 0 20 20" fill="none" xmlns="http://www.w3.org/2000/svg">
<path d="M9.52 11.624V10.892C9.52 10.676 9.536 10.496 9.568 10.352C9.6 10.208 9.648 10.08 9.712 9.968C9.776 9.848 9.86 9.736 9.964 9.632C10.076 9.52 10.212 9.388 10.372 9.236C10.5 9.116 10.628 8.996 10.756 8.876C10.884 8.748 11 8.62 11.104 8.492C11.208 8.356 11.292 8.216 11.356 8.072C11.428 7.92 11.464 7.752 11.464 7.568C11.464 7.384 11.428 7.216 11.356 7.064C11.292 6.904 11.204 6.768 11.092 6.656C10.98 6.544 10.844 6.456 10.684 6.392C10.532 6.328 10.368 6.296 10.192 6.296C9.8 6.296 9.48 6.42 9.232 6.668C8.992 6.916 8.848 7.24 8.8 7.64L7.576 7.52C7.68 6.824 7.968 6.28 8.44 5.888C8.92 5.488 9.512 5.288 10.216 5.288C10.552 5.288 10.864 5.34 11.152 5.444C11.448 5.54 11.704 5.684 11.92 5.876C12.136 6.06 12.304 6.292 12.424 6.572C12.552 6.844 12.616 7.156 12.616 7.508C12.616 7.812 12.572 8.08 12.484 8.312C12.396 8.536 12.272 8.748 12.112 8.948L11.392 9.692L11.272 9.8C11.144 9.92 11.04 10.024 10.96 10.112C10.888 10.192 10.828 10.28 10.78 10.376C10.74 10.464 10.712 10.564 10.696 10.676C10.68 10.788 10.672 10.928 10.672 11.096V11.624H9.52ZM9.292 13.28C9.292 13.064 9.368 12.88 9.52 12.728C9.68 12.568 9.868 12.488 10.084 12.488C10.3 12.488 10.484 12.568 10.636 12.728C10.796 12.88 10.876 13.064 10.876 13.28C10.876 13.496 10.796 13.684 10.636 13.844C10.484 13.996 10.3 14.072 10.084 14.072C9.868 14.072 9.68 13.996 9.52 13.844C9.368 13.684 9.292 13.496 9.292 13.28Z" fill="#595959"/>
<circle cx="10" cy="10" r="9.5" stroke="#6E6D6D"/>
</svg>
