<svg width="22" height="22" viewBox="0 0 22 22" fill="none" xmlns="http://www.w3.org/2000/svg">
<path d="M19.9498 8.98923H19.0036C17.8996 8.98923 17.2688 7.64873 18.1362 6.78135L18.767 6.15052C19.2401 5.6774 19.2401 4.81002 18.767 4.3369L17.6631 3.23296C17.19 2.75984 16.3226 2.75984 15.8495 3.23296L15.2186 3.86378C14.4301 4.65231 13.0108 4.10034 13.0108 2.9964V2.05016C13.0108 1.34048 12.4588 0.788513 11.7491 0.788513H10.2509C9.54122 0.788513 8.98925 1.34048 8.98925 2.05016V2.9964C8.98925 4.10034 7.64874 4.73117 6.78136 3.86378L6.15054 3.23296C5.67742 2.75984 4.81003 2.75984 4.33692 3.23296L3.23297 4.3369C2.75985 4.81002 2.75985 5.6774 3.23297 6.15052L3.8638 6.78135C4.65233 7.56988 4.10036 8.98923 2.99641 8.98923H2.05018C1.3405 8.98923 0.788528 9.5412 0.788528 10.2509V11.7491C0.788528 12.4588 1.3405 13.0107 2.05018 13.0107H2.99641C4.10036 13.0107 4.73118 14.3512 3.8638 15.2186L3.23297 15.8494C2.75985 16.3226 2.75985 17.1899 3.23297 17.6631L4.33692 18.767C4.81003 19.2401 5.67742 19.2401 6.15054 18.767L6.78136 18.1362C7.56989 17.3477 8.98925 17.8996 8.98925 19.0036V19.9498C8.98925 20.6595 9.54122 21.2115 10.2509 21.2115H11.7491C12.4588 21.2115 13.0108 20.6595 13.0108 19.9498V19.0036C13.0108 17.8996 14.3513 17.2688 15.2186 18.1362L15.8495 18.767C16.3226 19.2401 17.19 19.2401 17.6631 18.767L18.767 17.6631C19.2401 17.1899 19.2401 16.3226 18.767 15.8494L18.1362 15.2186C17.3477 14.4301 17.8996 13.0107 19.0036 13.0107H19.9498C20.6595 13.0107 21.2115 12.4588 21.2115 11.7491V10.2509C21.2115 9.5412 20.6595 8.98923 19.9498 8.98923Z" stroke="#586D82" stroke-width="1.5" stroke-miterlimit="10"/>
<path d="M10.9606 14.0359C12.659 14.0359 14.0358 12.659 14.0358 10.9606C14.0358 9.26216 12.659 7.88531 10.9606 7.88531C9.26214 7.88531 7.8853 9.26216 7.8853 10.9606C7.8853 12.659 9.26214 14.0359 10.9606 14.0359Z" stroke="#586D82" stroke-width="1.5" stroke-miterlimit="10"/>
</svg>
