<svg id="Group_20499" data-name="Group 20499" xmlns="http://www.w3.org/2000/svg" width="137.143" height="114.36" viewBox="0 0 137.143 114.36">
  <g id="Group_20489" data-name="Group 20489" transform="translate(104.466)">
    <path id="Path_47331" data-name="Path 47331" d="M2937.34,171.589c-2.453,1.232-2.621-.074-2.8-.778a11.466,11.466,0,0,1,.648-5.428,12.257,12.257,0,0,0,.7-5.631,2.648,2.648,0,0,0-2.592-2.109,2.8,2.8,0,0,0-2.41,1.5l-3.316.871,3.322.173a2.424,2.424,0,0,0,1.511,1.168c1.5.367,1.816-.627,1.965.016a5.654,5.654,0,0,1-.27,2.586c-.6,1.582-1.2,1.887-2.416,3.146a9.824,9.824,0,0,0-2.52,5.039c-.889-.049-2.667-1.531-2.667-1.531s-5.829-4.693-4.248-11.707a12.238,12.238,0,0,1,7.658-8.9,15.957,15.957,0,0,0-9.278,5.7,17.439,17.439,0,0,0,.375,8.88,17.483,17.483,0,0,1-2.011-6.506,19.688,19.688,0,0,0-1.323,2.808c-1.546,3.922,2.344,8.168,2.344,8.168a5.355,5.355,0,0,1-3.5-3.354,20.479,20.479,0,0,0,.108,5.264,4.475,4.475,0,0,0,4.3,3,5.466,5.466,0,0,1-3.713-.352c1.553,5.44,6.836,12.509,15.508,12.509,9.844,0,14.579-8.757,15.546-12.508a5.346,5.346,0,0,1-3.71.354,4.474,4.474,0,0,0,4.3-3,20.971,20.971,0,0,0,.1-5.267,5.356,5.356,0,0,1-3.5,3.354s3.89-4.246,2.344-8.168a19.641,19.641,0,0,0-1.323-2.808,17.482,17.482,0,0,1-2.01,6.506,17.444,17.444,0,0,0,.375-8.88,15.953,15.953,0,0,0-9.31-5.7,11.906,11.906,0,0,1,1.8,21.589Z" transform="translate(-2916.402 -150)" fill="#42001d"/>
    <path id="Path_47332" data-name="Path 47332" d="M3022.15,180.084v0a.322.322,0,0,0-.592.008h0a.322.322,0,0,0-.021.172l.308,2.011.33-2A.322.322,0,0,0,3022.15,180.084Z" transform="translate(-3005.504 -175.333)" fill="#42001d"/>
  </g>
  <g id="Group_20490" data-name="Group 20490" transform="translate(0 40.346)">
    <path id="Path_47333" data-name="Path 47333" d="M2237.882,443.3c0-10.034,0-11.882-.132-14-.132-2.244-.661-3.3-2.839-3.763a13.613,13.613,0,0,0-2.575-.2c-.726,0-1.122-.132-1.122-.594s.462-.594,1.452-.594c3.5,0,7.658.2,9.507.2,2.707,0,6.535-.2,9.572-.2,8.252,0,11.223,2.772,12.279,3.763a11.468,11.468,0,0,1,3.3,7.856c0,9.374-6.865,15.975-16.239,15.975a9.825,9.825,0,0,1-1.387-.066c-.33-.066-.792-.132-.792-.594,0-.528.461-.726,1.848-.726,3.7,0,8.846-4.159,8.846-10.893,0-2.178-.2-6.6-3.9-9.9a9.8,9.8,0,0,0-6.6-2.574,9.315,9.315,0,0,0-2.574.264c-.331.132-.529.528-.529,1.254v26.406c0,6.073,0,11.288.33,14.127.2,1.848.594,3.3,2.575,3.565a27.828,27.828,0,0,0,3.366.264c.726,0,1.057.2,1.057.528,0,.462-.528.66-1.255.66-4.356,0-8.516-.2-10.232-.2-1.518,0-5.677.2-8.318.2-.859,0-1.32-.2-1.32-.66,0-.33.264-.528,1.056-.528a10.789,10.789,0,0,0,2.377-.264c1.32-.264,1.65-1.717,1.914-3.631.33-2.773.33-7.988.33-14.061Z" transform="translate(-2231.214 -422.703)" fill="#42001d"/>
    <path id="Path_47334" data-name="Path 47334" d="M2496.364,416.345c.2-1.122.594-1.716,1.122-1.716s.924.33,1.782,2.047l18.021,37.232,17.956-37.694c.528-1.057.858-1.584,1.452-1.584s.99.66,1.188,2.047l6.007,40.8c.595,4.159,1.255,6.073,3.235,6.668a13.2,13.2,0,0,0,4.093.66c.594,0,1.056.066,1.056.462,0,.528-.792.726-1.716.726-1.65,0-10.76-.2-13.4-.4-1.518-.132-1.915-.33-1.915-.726,0-.33.264-.528.726-.726.4-.132.594-.99.331-2.839l-3.961-29.047h-.263l-14.392,29.971c-1.518,3.1-1.848,3.7-2.442,3.7s-1.254-1.32-2.311-3.3c-1.584-3.037-6.8-13.137-7.591-14.986-.594-1.386-4.555-9.7-6.865-14.655h-.264l-3.433,26.274a26.007,26.007,0,0,0-.2,3.1c0,1.254.858,1.848,1.98,2.112a12.743,12.743,0,0,0,2.773.33c.528,0,.99.132.99.462,0,.594-.594.726-1.583.726-2.773,0-5.744-.2-6.932-.2-1.254,0-4.423.2-6.535.2-.66,0-1.188-.132-1.188-.726,0-.33.4-.462,1.055-.462a8.509,8.509,0,0,0,1.981-.2c1.849-.4,2.377-2.971,2.707-5.215Z" transform="translate(-2445.532 -414.629)" fill="#42001d"/>
    <path id="Path_47335" data-name="Path 47335" d="M2956.343,443.559c0-10.026,0-11.872-.132-13.983-.133-2.242-.659-3.3-2.836-3.759a13.55,13.55,0,0,0-2.572-.2c-.726,0-1.122-.132-1.122-.593s.462-.594,1.451-.594c3.5,0,7.652.2,9.366.2,1.583,0,5.739-.2,8.311-.2.924,0,1.385.132,1.385.594s-.4.593-1.187.593a9.9,9.9,0,0,0-1.912.2c-1.781.33-2.309,1.451-2.441,3.759-.132,2.111-.132,3.957-.132,13.983V457.8c0,2.836.2,6,.2,9.3a35.406,35.406,0,0,1-1.583,11.675c-1.385,4.023-4.881,8.574-11.212,12.466a36.051,36.051,0,0,1-3.3,1.714,2.946,2.946,0,0,1-1.32.4.52.52,0,0,1-.527-.528c0-.33.33-.593,1.451-1.187a13.8,13.8,0,0,0,3.166-2.506c5.013-5.079,4.947-11.675,4.947-24.6Z" transform="translate(-2837.682 -422.936)" fill="#42001d"/>
  </g>
  <g id="Group_20491" data-name="Group 20491" transform="translate(4.55 96.6)">
    <path id="Path_47336" data-name="Path 47336" d="M2263.562,790.2c0-2.626,0-3.11-.034-3.663-.035-.587-.173-.864-.743-.985a3.518,3.518,0,0,0-.674-.052c-.19,0-.293-.034-.293-.155s.121-.156.38-.156c.916,0,2,.052,2.453.052.415,0,1.5-.052,2.177-.052.242,0,.363.035.363.156s-.1.155-.311.155a2.574,2.574,0,0,0-.5.052c-.467.086-.6.38-.639.985-.034.553-.034,1.036-.034,3.663v3.2c0,.743.052,1.572.052,2.436a9.268,9.268,0,0,1-.415,3.058,6.576,6.576,0,0,1-2.937,3.266,9.518,9.518,0,0,1-.864.449.77.77,0,0,1-.345.1.136.136,0,0,1-.138-.138c0-.086.086-.155.38-.311a3.61,3.61,0,0,0,.829-.656c1.313-1.33,1.3-3.058,1.3-6.444Z" transform="translate(-2261.057 -784.943)" fill="#42001d"/>
    <path id="Path_47337" data-name="Path 47337" d="M2355.563,789.427c0-2.626,0-3.11-.035-3.663-.034-.587-.173-.864-.743-.985a3.537,3.537,0,0,0-.674-.052c-.19,0-.293-.035-.293-.155s.122-.156.38-.156c.467,0,.968.017,1.4.017.45.017.846.035,1.088.035.553,0,3.991,0,4.32-.017a6.941,6.941,0,0,0,.743-.1,1.612,1.612,0,0,1,.276-.069c.086,0,.1.069.1.156a11.223,11.223,0,0,0-.138,1.123c-.018.173-.052.933-.086,1.14-.018.086-.052.19-.172.19s-.156-.087-.156-.242a1.853,1.853,0,0,0-.1-.622c-.122-.311-.294-.518-1.158-.622-.294-.035-2.107-.069-2.453-.069-.086,0-.121.052-.121.173v4.371c0,.121.017.19.121.19.38,0,2.366,0,2.764-.035a1.205,1.205,0,0,0,.829-.259c.121-.138.19-.225.277-.225.068,0,.121.035.121.138s-.069.38-.139,1.261c-.017.346-.068,1.036-.068,1.157,0,.138,0,.328-.156.328a.137.137,0,0,1-.155-.156,4.685,4.685,0,0,0-.069-.622c-.087-.345-.329-.6-.968-.673-.329-.035-2.039-.052-2.454-.052-.086,0-.1.069-.1.172v1.365c0,.588-.018,2.177,0,2.678.034,1.192.311,1.451,2.073,1.451a4.379,4.379,0,0,0,1.624-.208c.449-.207.657-.57.777-1.278.035-.19.069-.259.19-.259.138,0,.138.138.138.311a13.548,13.548,0,0,1-.225,1.918c-.122.449-.276.449-.933.449-1.3,0-2.246-.035-2.989-.052-.743-.035-1.278-.052-1.8-.052-.19,0-.57,0-.985.017-.4,0-.846.035-1.191.035-.225,0-.346-.052-.346-.173,0-.087.069-.138.276-.138a2.806,2.806,0,0,0,.622-.069c.346-.069.432-.449.5-.95.086-.726.086-2.09.086-3.68Z" transform="translate(-2339.675 -784.175)" fill="#42001d"/>
    <path id="Path_47338" data-name="Path 47338" d="M2458.5,786.878a2.52,2.52,0,0,0-.639-1.227,1.529,1.529,0,0,0-.691-.156c-.173,0-.276-.017-.276-.155,0-.121.138-.156.38-.156.9,0,1.848.052,2,.052s.915-.052,1.917-.052q.363,0,.363.156c0,.138-.138.155-.311.155a.911.911,0,0,0-.432.069c-.156.069-.189.19-.189.38a11.279,11.279,0,0,0,.38,1.589c.293,1.14,1.9,6.375,2.211,7.343h.052l3.352-9c.173-.484.294-.622.432-.622.19,0,.277.259.5.812l3.594,8.69h.052c.311-1.158,1.693-5.719,2.3-7.74a3.684,3.684,0,0,0,.173-1c0-.276-.156-.518-.83-.518-.172,0-.293-.052-.293-.155,0-.121.138-.156.4-.156.916,0,1.641.052,1.8.052.121,0,.864-.052,1.434-.052.19,0,.311.035.311.138,0,.121-.086.173-.242.173a1.889,1.889,0,0,0-.6.086c-.415.156-.605.847-.968,1.831-.795,2.177-2.609,7.671-3.455,10.262-.19.6-.277.812-.5.812-.173,0-.277-.207-.536-.846l-3.594-8.656h-.035c-.328.881-2.625,7-3.369,8.587-.328.708-.414.916-.622.916-.173,0-.242-.19-.4-.639Z" transform="translate(-2427.032 -784.943)" fill="#42001d"/>
    <path id="Path_47339" data-name="Path 47339" d="M2631.392,789.427c0-2.626,0-3.11-.034-3.663-.035-.587-.173-.864-.743-.985a3.539,3.539,0,0,0-.674-.052c-.19,0-.294-.035-.294-.155s.121-.156.381-.156c.466,0,.967.017,1.4.017.449.017.846.035,1.088.035.552,0,3.991,0,4.319-.017a6.941,6.941,0,0,0,.743-.1,1.631,1.631,0,0,1,.277-.069c.086,0,.1.069.1.156a10.913,10.913,0,0,0-.138,1.123c-.018.173-.052.933-.086,1.14-.017.086-.052.19-.173.19s-.155-.087-.155-.242a1.868,1.868,0,0,0-.1-.622c-.121-.311-.294-.518-1.157-.622-.294-.035-2.108-.069-2.454-.069-.086,0-.121.052-.121.173v4.371c0,.121.017.19.121.19.38,0,2.367,0,2.764-.035a1.207,1.207,0,0,0,.829-.259c.121-.138.19-.225.276-.225.069,0,.121.035.121.138s-.069.38-.138,1.261c-.017.346-.069,1.036-.069,1.157,0,.138,0,.328-.155.328a.137.137,0,0,1-.156-.156,4.493,4.493,0,0,0-.069-.622c-.087-.345-.328-.6-.968-.673-.328-.035-2.039-.052-2.453-.052-.087,0-.1.069-.1.172v1.365c0,.588-.017,2.177,0,2.678.034,1.192.311,1.451,2.073,1.451a4.376,4.376,0,0,0,1.624-.208c.449-.207.656-.57.778-1.278.034-.19.069-.259.19-.259.138,0,.138.138.138.311a13.583,13.583,0,0,1-.225,1.918c-.121.449-.277.449-.933.449-1.3,0-2.246-.035-2.989-.052-.743-.035-1.278-.052-1.8-.052-.19,0-.57,0-.985.017-.4,0-.847.035-1.192.035-.224,0-.345-.052-.345-.173,0-.087.069-.138.276-.138a2.809,2.809,0,0,0,.623-.069c.345-.069.431-.449.5-.95.087-.726.087-2.09.087-3.68Z" transform="translate(-2573.451 -784.175)" fill="#42001d"/>
    <path id="Path_47340" data-name="Path 47340" d="M2746.378,793.236c0,2.211,0,3.4.363,3.714.293.259.743.38,2.091.38.916,0,1.59-.017,2.021-.484a2.172,2.172,0,0,0,.449-1.037c.017-.156.051-.259.19-.259.121,0,.138.086.138.294a13.6,13.6,0,0,1-.259,1.987c-.1.38-.19.467-1.088.467-1.244,0-2.142-.035-2.92-.052-.777-.035-1.4-.052-2.107-.052-.191,0-.571,0-.985.017-.4,0-.846.035-1.192.035-.225,0-.345-.052-.345-.173,0-.086.069-.138.276-.138a2.808,2.808,0,0,0,.622-.069c.345-.069.432-.449.5-.95.086-.726.086-2.09.086-3.68V790.2c0-2.626,0-3.11-.034-3.663-.035-.587-.173-.864-.743-.985a2.543,2.543,0,0,0-.571-.052c-.19,0-.293-.034-.293-.155s.121-.156.38-.156c.812,0,1.9.052,2.367.052.415,0,1.675-.052,2.35-.052.241,0,.363.035.363.156s-.1.155-.311.155a4.55,4.55,0,0,0-.674.052c-.466.086-.6.38-.639.985-.035.553-.035,1.036-.035,3.663Z" transform="translate(-2669.164 -784.943)" fill="#42001d"/>
    <path id="Path_47341" data-name="Path 47341" d="M2854.477,796.695c-.276-.121-.328-.207-.328-.588,0-.95.069-1.987.086-2.263.017-.259.068-.449.207-.449.156,0,.173.156.173.294a3.65,3.65,0,0,0,.156.881,2.381,2.381,0,0,0,2.47,1.745,2.1,2.1,0,0,0,2.315-1.97c0-.847-.259-1.641-1.693-2.764l-.8-.622c-1.9-1.486-2.556-2.7-2.556-4.094,0-1.9,1.59-3.266,3.991-3.266a8.354,8.354,0,0,1,2.3.294c.156.035.242.086.242.207,0,.225-.069.726-.069,2.073,0,.38-.052.518-.19.518-.121,0-.173-.1-.173-.311a2.092,2.092,0,0,0-.449-1.14,2.189,2.189,0,0,0-1.884-.846,1.818,1.818,0,0,0-2.056,1.78c0,.795.4,1.4,1.832,2.488l.483.363c2.091,1.572,2.833,2.764,2.833,4.406a3.482,3.482,0,0,1-1.624,3.006,5,5,0,0,1-2.748.708A5.987,5.987,0,0,1,2854.477,796.695Z" transform="translate(-2763.724 -783.599)" fill="#42001d"/>
  </g>
</svg>
