<svg width="24" height="22" viewBox="0 0 24 22" fill="none" xmlns="http://www.w3.org/2000/svg">
<path d="M13.1288 1.56928L15.4981 6.29217C15.6673 6.62952 15.9211 6.79819 16.2596 6.88253L21.5057 7.55723C22.3519 7.64157 22.6904 8.73795 22.0981 9.32831L18.2904 13.0392C18.0365 13.2922 17.9519 13.6295 17.9519 13.9669L18.8827 19.1114C19.0519 19.9548 18.1211 20.6295 17.3596 20.2078L12.7057 17.762C12.3673 17.5934 12.0288 17.5934 11.775 17.762L7.12113 20.2078C6.27498 20.6295 5.42883 19.9548 5.51344 19.1114L6.44421 13.9669C6.52883 13.6295 6.3596 13.2922 6.10575 13.0392L2.29806 9.32831C1.70575 8.73795 2.04421 7.7259 2.89036 7.55723L8.13652 6.79819C8.47498 6.79819 8.81344 6.54518 8.89806 6.29217L11.2673 1.56928C11.6904 0.810241 12.7057 0.810241 13.1288 1.56928Z" stroke="#F57500" stroke-width="2" stroke-miterlimit="10"/>
</svg>
